<?xml version="1.0" standalone="no"?>
<!DOCTYPE svg PUBLIC "-//W3C//DTD SVG 20010904//EN"
 "http://www.w3.org/TR/2001/REC-SVG-20010904/DTD/svg10.dtd">
<svg version="1.0" xmlns="http://www.w3.org/2000/svg"
 width="1275.000000pt" height="1651.000000pt" viewBox="0 0 1275.000000 1651.000000"
 preserveAspectRatio="xMidYMid meet">
<metadata>
Created by potrace 1.16, written by Peter Selinger 2001-2019
</metadata>
<g transform="translate(0.000000,1651.000000) scale(0.100000,-0.100000)"
fill="#000000" stroke="none">
<path d="M1200 15230 c0 -40 4 -70 10 -70 6 0 10 21 10 48 l1 47 25 -47 c13
-27 29 -48 34 -48 6 0 10 31 10 71 0 44 -4 68 -10 64 -5 -3 -10 -27 -10 -53
l0 -47 -25 53 c-13 28 -29 52 -35 52 -6 0 -10 -28 -10 -70z"/>
<path d="M1320 15290 c0 -5 9 -10 20 -10 18 0 20 -7 20 -60 0 -33 4 -60 10
-60 6 0 10 27 10 60 0 53 2 60 20 60 11 0 20 5 20 10 0 6 -22 10 -50 10 -27 0
-50 -4 -50 -10z"/>
</g>
</svg>
